<svg xmlns="http://www.w3.org/2000/svg" viewBox="0 0 893.65 888.98"><defs><style>.cls-1{fill:#1877f2;}</style></defs><g id="Layer_2" data-name="Layer 2"><g id="Layer_1-2" data-name="Layer 1"><g id="BLUE"><path class="cls-1" d="M551.2,531.84,444.64,414.42,338.55,531.32q45,70.9,95.94,137.7c3.28,4.32,6.61,8.59,9.92,12.87,2.22,2.86,2.65,2.88,5-.22,17.62-23.83,35.5-47.48,52.77-71.57q27.48-38.37,52.68-78.26Zm-111.16-7a3.47,3.47,0,0,1-3.47,3.47H419.45a3.47,3.47,0,0,1-3.47-3.47V507.78a3.47,3.47,0,0,1,3.47-3.47h17.12a3.47,3.47,0,0,1,3.47,3.47ZM440,489a3.47,3.47,0,0,1-3.47,3.47H419.45A3.47,3.47,0,0,1,416,489V471.92a3.47,3.47,0,0,1,3.47-3.47h17.12a3.47,3.47,0,0,1,3.47,3.47Zm34.23,35.85a3.47,3.47,0,0,1-3.47,3.47H453.69a3.47,3.47,0,0,1-3.47-3.47V507.78a3.47,3.47,0,0,1,3.47-3.47H470.8a3.47,3.47,0,0,1,3.47,3.47Zm0-35.85a3.47,3.47,0,0,1-3.47,3.47H453.69a3.47,3.47,0,0,1-3.47-3.47V471.92a3.47,3.47,0,0,1,3.47-3.47H470.8a3.47,3.47,0,0,1,3.47,3.47Z"/><path class="cls-1" d="M675.14,273.44c-2.56,15-7.34,29.29-12,43.66-10.11,31.26-23.23,61.28-37.71,90.72-13.73,27.89-28.81,55.08-44.71,81.79L478.57,377l-33.93-37.39L410.71,377l-94,103.6V195.12H514.55a65.39,65.39,0,0,1,65.19,61.57,65.39,65.39,0,0,1-65.19,61.56H497.83l42.86,47.23A115.75,115.75,0,0,0,630,257.94h.11c0-.41,0-.8-.05-1.21s0-.87.05-1.3H630c-2.65-61.4-53.37-110.56-115.41-110.56H313.41a46.93,46.93,0,0,0-47,47V404.24a732.18,732.18,0,0,1-38.78-95.53c-10.36-32.2-15.05-64.82-11.93-98.55A231.94,231.94,0,0,1,322.88,35.45,225.54,225.54,0,0,1,409.69,2.63C416,1.64,422.27.87,428.57,0h36.48c.93.17,1.85.41,2.78.5a227.36,227.36,0,0,1,51.24,10.57A232,232,0,0,1,678,210.74,238.67,238.67,0,0,1,675.14,273.44Z"/><path class="cls-1" d="M219,804q-9-11.37-27-11.37-21.53-.07-34.69,12.91t-16.42,35l-.43,3.26q-2.92,19.3,7.55,32.2T178.73,889a79.76,79.76,0,0,0,21.73-3,62,62,0,0,0,17.19-7.37l-4.28-17.68A95.68,95.68,0,0,1,200,865.26a61,61,0,0,1-14,1.42q-8.91,0-12.94-4.42t-3.61-11.87l.18-.51h53.25l2.32-15.19Q228,815.39,219,804Zm-21.35,25.5-.35,2.24h-25l-.16-.51A26.83,26.83,0,0,1,178,819.38,13.67,13.67,0,0,1,188.67,815q6.09,0,8.11,3.56C198.13,820.9,198.42,824.57,197.68,829.54Z"/><path class="cls-1" d="M318.77,794.39H242.61l-3.35,22.3h38.85l.18.42-49,53.94-2.4,16.13h78.81l3.35-22.3h-41.6l-.16-.43L316.45,810Z"/><path class="cls-1" d="M399.71,804q-9-11.37-27-11.37-21.52-.07-34.7,12.91t-16.42,35l-.42,3.26q-2.91,19.3,7.54,32.2T359.42,889a79.89,79.89,0,0,0,21.74-3,62.36,62.36,0,0,0,17.19-7.37l-4.29-17.68a95.68,95.68,0,0,1-13.38,4.33,61,61,0,0,1-14,1.42q-8.91,0-12.94-4.42t-3.61-11.87l.17-.51h53.25l2.33-15.19Q408.72,815.39,399.71,804Zm-21.34,25.5-.34,2.24h-25l-.17-.51a26.62,26.62,0,0,1,5.79-11.89A13.67,13.67,0,0,1,369.36,815c4.07,0,6.76,1.19,8.1,3.56S379.11,824.57,378.37,829.54Z"/><path class="cls-1" d="M475.14,792.93a21.92,21.92,0,0,0-3.48-.26,19.81,19.81,0,0,0-11.83,3.83,29.72,29.72,0,0,0-8.92,10.83l-.42-.25.94-12.69H424.16l-13.89,92.79h29l9.09-60.89a15.24,15.24,0,0,1,5.66-5.36,17,17,0,0,1,8.32-1.93l9.43.09,6.61-25.39A23.1,23.1,0,0,0,475.14,792.93Z"/><path class="cls-1" d="M538.73,794.39l-20.41,54.54L515,858.87l-.51-.07-.25-9.87-4.3-54.54H479.38l16.3,92.79h29.41l44.08-92.79Z"/><path class="cls-1" d="M579.2,794.39l-13.89,92.79h29.08l13.89-92.79Z"/><path class="cls-1" d="M656.29,814.45H671l3-20.06H659.29l3.52-23.07h-29l-3.51,23.07H617.36l-3,20.06h12.95L621,857.16q-2.49,16.4,4,24.1T645.33,889a66.3,66.3,0,0,0,8.39-.47,72.16,72.16,0,0,0,8.07-1.59l1.29-21.44a27.28,27.28,0,0,1-3.53.69,30.27,30.27,0,0,1-3.59.17,6.29,6.29,0,0,1-5.19-2.06q-1.68-2.06-.82-7.29Z"/><path class="cls-1" d="M737.65,843.82q-1.89,9.95-6.28,16.09a15.17,15.17,0,0,1-13,6.77c-5.89,0-9.73-2.16-11.49-6.48s-2-10.46-.78-18.48l.26-1.8q1.54-11.05,6.42-18A15.33,15.33,0,0,1,725.93,815c5.84,0,9.63,2.22,11.41,6.65q2.25,5.61,1.35,14.84c2.43-14.21,8.08-26,16.84-35.18q-9.85-8.61-26.25-8.61-21.45,0-35.08,12.78t-16.81,34.47l-.25,1.8q-3.2,20.76,7.11,34T715,889q18.23,0,30.8-9.31C738.89,869.9,736.14,857.86,737.65,843.82Z"/><path class="cls-1" d="M818.5,811.7a19.36,19.36,0,0,1,4.43-12.33q-9.37-6.69-23.86-6.7-21.44,0-35.07,12.78t-16.81,34.47l-.25,1.8q-3.18,20.76,7.12,34T784.84,889q21.35,0,34.94-12.74t16.94-34.52l.25-1.8a62.07,62.07,0,0,0,.68-8.8A19.44,19.44,0,0,1,818.5,811.7Zm-10.42,28.22-.26,1.8q-1.8,11.41-6.65,18.19a15.2,15.2,0,0,1-13,6.77q-8.82,0-11.49-6.48t-.77-18.48l.26-1.8q1.53-11.05,6.43-18A15.27,15.27,0,0,1,795.73,815q8.74,0,11.4,6.65T808.08,839.92Z"/><circle class="cls-1" cx="826.69" cy="780.69" r="9.33"/><circle class="cls-1" cx="853.75" cy="766.02" r="9.53"/><circle class="cls-1" cx="884.12" cy="759.92" r="9.53"/><circle class="cls-1" cx="868.63" cy="792.67" r="11.3"/><path class="cls-1" d="M852.52,811.7a14.62,14.62,0,0,1-14.61,14.61,12.35,12.35,0,0,1-2.11-.18,14.6,14.6,0,1,1,16.72-14.43Z"/><polygon class="cls-1" points="585.38 753.4 582.46 772.87 611.54 772.87 614.45 753.4 585.38 753.4"/><polygon class="cls-1" points="115.24 887.18 68.05 887.18 0 819.04 47.19 819.04 115.24 887.18"/><path class="cls-1" d="M135.79,802.33a49.84,49.84,0,0,1-36.22,47.95L68.38,819H86a16.71,16.71,0,0,0,0-33.42H35L1.93,752.51H86A49.79,49.79,0,0,1,135.79,802.33Z"/></g></g></g></svg>