<svg xmlns="http://www.w3.org/2000/svg" viewBox="0 0 464.11 684.02"><defs><style>.cls-1{fill:#1877f2;}</style></defs><g id="Layer_2" data-name="Layer 2"><g id="Layer_1-2" data-name="Layer 1"><path class="cls-1" d="M336.43,531.84,229.87,414.42,123.79,531.32q45,70.9,95.94,137.7c3.27,4.32,6.6,8.59,9.91,12.87,2.22,2.86,2.65,2.88,5-.22,17.62-23.83,35.5-47.48,52.77-71.57q27.48-38.37,52.69-78.26Zm-111.16-7a3.47,3.47,0,0,1-3.47,3.47H204.68a3.48,3.48,0,0,1-3.47-3.47V507.78a3.47,3.47,0,0,1,3.47-3.47H221.8a3.47,3.47,0,0,1,3.47,3.47Zm0-35.85a3.47,3.47,0,0,1-3.47,3.47H204.68a3.48,3.48,0,0,1-3.47-3.47V471.92a3.47,3.47,0,0,1,3.47-3.47H221.8a3.47,3.47,0,0,1,3.47,3.47Zm34.23,35.85a3.47,3.47,0,0,1-3.47,3.47H238.92a3.48,3.48,0,0,1-3.47-3.47V507.78a3.47,3.47,0,0,1,3.47-3.47H256a3.47,3.47,0,0,1,3.47,3.47Zm0-35.85a3.47,3.47,0,0,1-3.47,3.47H238.92a3.48,3.48,0,0,1-3.47-3.47V471.92a3.47,3.47,0,0,1,3.47-3.47H256a3.47,3.47,0,0,1,3.47,3.47Z"/><path class="cls-1" d="M460.38,273.44c-2.57,15-7.34,29.29-12,43.66-10.11,31.26-23.22,61.28-37.71,90.72C397,435.71,381.87,462.9,366,489.61L263.8,377l-33.93-37.39L195.94,377l-94,103.6V195.12H299.78A65.39,65.39,0,0,1,365,256.69a65.39,65.39,0,0,1-65.19,61.56H283.06l42.87,47.23a115.75,115.75,0,0,0,89.26-107.54h.11c0-.41,0-.8-.05-1.21s0-.87.05-1.3h-.11c-2.65-61.4-53.37-110.56-115.41-110.56H98.64a46.92,46.92,0,0,0-47,47V404.24a730.84,730.84,0,0,1-38.79-95.53C2.52,276.51-2.17,243.89,1,210.16A231.86,231.86,0,0,1,108.12,35.45,225.41,225.41,0,0,1,194.93,2.63C201.2,1.64,207.5.87,213.8,0h36.48c.94.17,1.85.41,2.78.5A227.25,227.25,0,0,1,304.3,11.07,232,232,0,0,1,463.18,210.74,239.09,239.09,0,0,1,460.38,273.44Z"/></g></g></svg>